<?xml version="1.0" encoding="utf-8"?>
<!-- Generator: Adobe Illustrator 26.3.1, SVG Export Plug-In . SVG Version: 6.00 Build 0)  -->
<svg version="1.1" id="Layer_1" xmlns="http://www.w3.org/2000/svg" xmlns:xlink="http://www.w3.org/1999/xlink" x="0px" y="0px"
	 width="900px" height="320px" viewBox="0 0 900 320" style="enable-background:new 0 0 900 320;" xml:space="preserve">
<style type="text/css">
	.st0{fill:#FFFFFF;}
</style>
<path class="st0" d="M654.7,118c23.9,0,37.1,10.2,43.5,31l-23.9,5.9c-3.3-10-9.4-15.1-18.8-15.1c-14.7,0-22.2,10-22.2,30.2
	c0,20.2,7.3,30.2,22.2,30.2c9.4,0,15.5-5.1,18.8-15.1l23.9,5.9c-6.5,20.8-19.6,31-43.5,31c-30.2,0-48.4-19.6-48.4-52
	C606.2,137.6,624.5,118,654.7,118 M581.9,220H556V120h25.9V220z M569.2,76.9c8.8,0,15.9,7.1,15.9,15.9s-7.1,15.9-15.9,15.9
	s-15.9-7.1-15.9-15.9S560.4,76.9,569.2,76.9 M538,141.8h-34.7V220h-25.9V120H538V141.8z M424.1,179v-59H450v58.8
	c0,29-14.7,43.1-43.5,43.1c-28.8,0-43.7-14.1-43.7-43.1V120h25.9v59c0,15.3,6.3,21.2,17.8,21.2C418,200.2,424.1,194.3,424.1,179
	 M284.5,82.7h25.9V120h32v21.8h-32v44.3c0,10.8,5.7,14.1,13.1,14.1c5.9,0,9.2-2.2,13.3-5.9l10,18.4c-6.7,5.1-15.9,9.2-27.9,9.2
	c-22.4,0-34.5-13.1-34.5-32.8L284.5,82.7L284.5,82.7z M233.1,179v-59H259v58.8c0,29-14.7,43.1-43.5,43.1
	c-28.8,0-43.7-14.1-43.7-43.1V120h25.9v59c0,15.3,6.3,21.2,17.9,21.2C227,200.2,233.1,194.3,233.1,179 M99.8,107.8
	c0-19.6,12.2-33,34.5-33c10,0,19,2.9,26.3,8l-10.2,18c-3.3-2.8-6.9-4.3-12.2-4.3c-8.4,0-12.6,5.3-12.6,14.1v9.2h30v21.8h-30V220
	H99.8V107.8z M808.2,164.7c0-32-19-46.7-46.5-46.7c-28.6,0-47.5,19.4-47.5,51.4c0,32.2,16.7,52.5,48.8,52.5
	c21.8,0,35.3-9.8,44.1-25.3l-20.8-10.6c-4.5,9.4-12.9,14.9-23.9,14.9c-12,0-21.4-8.2-22-24.5h67.7V164.7z M741,159.2
	c1.2-10.4,7.7-20.6,21.4-20.6c15.9,0,20.6,10.4,20.6,20.6H741z"/>
</svg>
